# xmcd CD database file
#
# Track frame offsets:
#	150
#	23812
#	44415
#
# Disc length: 907 seconds
#
# Revision: 0
# Processed by: cddbd v1.5.1PL0 Copyright (c) Steve Scherf et al.
# Submitted via: CDex 1.51
#
DISCID=1d038903
DTITLE=大橋純子 - 大橋純子 - 愛は時を越えて
DYEAR=1992
DGENRE=J-POP
TTITLE0=愛は時を越えて
TTITLE1=クリスタル・ムーン
TTITLE2=愛は時を越えて（カラオケ）
EXTD=YEAR: 1992
EXTT0=
EXTT1=
EXTT2=
PLAYORDER=
